# xmcd CD database file
#
# Track frame offsets:
#	150
#	11120
#	29202
#	51417
#	69090
#	82435
#	100987
#	115607
#	127837
#	141825
#	160687
#	176332
#	191985
#	210582
#	226577
#	241542
#
# Disc length: 3447 seconds
#
# Revision: 0
# Processed by: cddbd v1.5PL3 Copyright (c) Steve Scherf et al.
# Submitted via: CDex 1.60beta1
#
DISCID=d40d7510
DTITLE=Various Artist - Drew's Famous Essential Country
DYEAR=2002
DGENRE=Country
TTITLE0=Some Days You Gotta Dance
TTITLE1=Young
TTITLE2=Where Were You (When the World Stopped)
TTITLE3=Only in America
TTITLE4=Bring on the Rain
TTITLE5=Run
TTITLE6=Forty Hour Week (For a Livin')
TTITLE7=Mammas Don't Let Your Babies Grow Up to Be Cowboys
TTITLE8=The Lucky One
TTITLE9=Man of Constant Sorrow
TTITLE10=Wrapped Up in You
TTITLE11=Good Morning Beautiful
TTITLE12=Modern Day Bonnie and Clyde
TTITLE13=Can't Fight the Moonlight
TTITLE14=It's Just What I Do
TTITLE15=Where the Stars and Stripes and the Eagle Fly
EXTD=YEAR: 2002
EXTT0=
EXTT1=
EXTT2=
EXTT3=
EXTT4=
EXTT5=
EXTT6=
EXTT7=
EXTT8=
EXTT9=
EXTT10=
EXTT11=
EXTT12=
EXTT13=
EXTT14=
EXTT15=
PLAYORDER=
